<svg width="8" height="6" viewBox="0 0 8 6" fill="none" xmlns="http://www.w3.org/2000/svg">
<path d="M0.789937 3.46555C0.356436 3.04125 0.356435 2.34352 0.789936 1.91922C1.21048 1.50761 1.88289 1.50761 2.30344 1.91922L4.04346 3.6223C4.47696 4.0466 4.47696 4.74433 4.04346 5.16863C3.62292 5.58025 2.9505 5.58025 2.52996 5.16863L0.789937 3.46555Z" fill="white"/>
<path d="M5.69634 0.739981C6.11708 0.328685 6.78934 0.328893 7.20982 0.74045C7.64346 1.16488 7.64346 1.86282 7.20982 2.28725L4.17583 5.25683C3.7541 5.66961 3.07959 5.66899 2.65861 5.25544C2.2256 4.83007 2.22646 4.132 2.66051 3.70768L5.69634 0.739981Z" fill="white"/>
</svg>
