<svg width="31" height="31" viewBox="0 0 31 31" fill="none" xmlns="http://www.w3.org/2000/svg">
<g clip-path="url(#clip0_1_188352)">
<path d="M10.3327 10.333C16.2466 10.333 20.6655 7.99516 20.6655 5.90474C20.6655 3.81452 16.2465 1.47656 10.3327 1.47656C4.41893 1.47656 0 3.81452 0 5.90474C0 7.99516 4.41883 10.333 10.3327 10.333Z" fill="#D7B27B"/>
<path d="M10.3327 28.0468C11.1959 28.0468 12.0267 27.9966 12.8169 27.9052C12.1508 27.0491 11.5999 26.0991 11.1872 25.0789C10.9037 25.0884 10.6191 25.095 10.3326 25.095C6.95343 25.095 3.75329 24.4254 1.32193 23.2097C0.843195 22.9703 0.402651 22.7132 0 22.4409V23.6187C0 25.7089 4.41883 28.0468 10.3327 28.0468Z" fill="#D7B27B"/>
<path d="M10.3328 22.142C10.3631 22.142 10.3929 22.1416 10.4232 22.1415C10.3626 21.6576 10.331 21.1648 10.331 20.6648C10.331 20.165 10.3625 19.6725 10.4232 19.189C10.3929 19.189 10.363 19.1901 10.3328 19.1901C6.95363 19.1901 3.75358 18.5206 1.32212 17.3048C0.843294 17.0655 0.402651 16.8083 0 16.5361V17.7138C9.84236e-05 19.8041 4.41893 22.142 10.3328 22.142Z" fill="#D7B27B"/>
<path d="M10.3328 16.2377C10.6257 16.2377 10.9147 16.2317 11.2 16.2205C11.6583 15.0962 12.2846 14.0578 13.0481 13.1368C12.1641 13.2343 11.2555 13.2859 10.3328 13.2859C6.95363 13.2859 3.75358 12.6164 1.32212 11.4006C0.843294 11.1612 0.402651 10.9041 0 10.6318V11.8096C9.84236e-05 13.8999 4.41893 16.2377 10.3328 16.2377Z" fill="#D7B27B"/>
<path d="M14.7632 15.7714C14.1244 16.7318 13.668 17.8232 13.4435 18.996C13.3399 19.5366 13.2852 20.0944 13.2852 20.6648C13.2852 21.0936 13.3165 21.5152 13.3756 21.9279C13.521 22.9418 13.8386 23.9004 14.2978 24.7738C14.7797 25.6902 15.4172 26.5125 16.1754 27.2049C17.7509 28.644 19.8464 29.5229 22.1433 29.5229C27.0277 29.5229 31.0014 25.5491 31.0014 20.6648C31.0014 15.7803 27.0277 11.8066 22.1433 11.8066C21.6385 11.8066 21.1435 11.8498 20.6614 11.9312C18.2059 12.3465 16.091 13.7755 14.7632 15.7714Z" fill="#D7B27B"/>
</g>
<defs>
<clipPath id="clip0_1_188352">
<rect width="31" height="31" fill="white"/>
</clipPath>
</defs>
</svg>
