<svg width="145" height="30" viewBox="0 0 145 30" fill="none" xmlns="http://www.w3.org/2000/svg">
<path d="M35.7812 21.5333V7.03331H39.7785L43.7757 16.044H44.3016L48.2988 7.03331H52.1908V21.5333H49.7715V11.3833L49.9819 9.41546H49.7715L45.8795 18.219H42.0926L38.2006 9.41546H37.9902L38.2006 11.3833V21.5333H35.7812ZM54.9242 17.2869V10.969H57.1331V17.0797C57.1331 18.005 57.3364 18.6885 57.7432 19.1305C58.164 19.5585 58.8023 19.7726 59.6577 19.7726C60.5131 19.7726 61.2145 19.4895 61.7615 18.9233C62.3224 18.3433 62.603 17.5907 62.603 16.6655V10.969H64.812V21.5333H62.603V20.0833H62.4978C62.3295 20.3595 62.0699 20.6357 61.7194 20.9119C60.9621 21.4643 60.0995 21.7405 59.1318 21.7405C57.7992 21.7405 56.7616 21.3607 56.0181 20.6012C55.2889 19.8417 54.9242 18.7369 54.9242 17.2869ZM67.3333 21.5333V7.03331H69.5423V19.5655H71.9617V21.5333H67.3333ZM72.5934 12.9369V10.969H73.8557V8.69046H76.0647V10.969H79.3256V12.9369H76.0647V19.5655H79.4308V21.5333H73.8557V12.9369H72.5934ZM81.4925 9.0426C81.24 8.79403 81.1138 8.49023 81.1138 8.13117C81.1138 7.77211 81.24 7.46831 81.4925 7.21974C81.745 6.95737 82.0537 6.82617 82.4182 6.82617C82.7829 6.82617 83.0914 6.95737 83.3438 7.21974C83.6105 7.46831 83.7436 7.77211 83.7436 8.13117C83.7436 8.49023 83.6105 8.79403 83.3438 9.0426C83.0914 9.29117 82.7829 9.41546 82.4182 9.41546C82.0537 9.41546 81.745 9.29117 81.4925 9.0426ZM81.3242 21.5333V10.969H83.5332V21.5333H81.3242Z" fill="#1F1E1C"/>
<path d="M86.2598 21.5332V7.0332H88.6791V13.0403H91.0985L95.5165 7.0332H98.3566L93.2023 13.9725L98.567 21.5332H95.6217L91.2037 15.3189H88.6791V21.5332H86.2598ZM100.1 20.2282C99.1466 19.2063 98.6696 17.8806 98.6696 16.2511C98.6696 14.6215 99.1466 13.3027 100.1 12.2946C101.068 11.2727 102.274 10.7618 103.719 10.7618C104.63 10.7618 105.465 11.0241 106.222 11.5489C106.545 11.7699 106.832 12.0253 107.085 12.3153H107.19V10.9689H109.399V21.5332H107.19V20.0832H107.085C106.874 20.3732 106.587 20.6494 106.222 20.9118C105.465 21.4641 104.63 21.7403 103.719 21.7403C102.274 21.7403 101.068 21.2363 100.1 20.2282ZM101.825 13.6411C101.264 14.2487 100.984 15.1187 100.984 16.2511C100.984 17.3834 101.264 18.2534 101.825 18.8611C102.386 19.4687 103.158 19.7725 104.139 19.7725C105.065 19.7725 105.801 19.4687 106.348 18.8611C106.91 18.2396 107.19 17.3696 107.19 16.2511C107.19 15.1325 106.91 14.2694 106.348 13.6618C105.801 13.0403 105.065 12.7296 104.139 12.7296C103.158 12.7296 102.386 13.0334 101.825 13.6411ZM111.179 18.2189H113.598C113.696 18.4951 113.872 18.7575 114.124 19.0061C114.643 19.517 115.345 19.7725 116.228 19.7725C116.999 19.7725 117.561 19.6551 117.911 19.4203C118.262 19.1856 118.437 18.8887 118.437 18.5296C118.437 18.4053 118.409 18.2949 118.353 18.1982C118.297 18.0877 118.199 17.9911 118.058 17.9082C117.918 17.8253 117.785 17.7563 117.659 17.7011C117.533 17.632 117.343 17.5699 117.091 17.5146C116.838 17.4456 116.635 17.3973 116.481 17.3696C116.326 17.3282 116.088 17.273 115.765 17.2039C115.457 17.1349 115.225 17.0865 115.071 17.0589C112.827 16.5618 111.705 15.4984 111.705 13.8689C111.705 13.0403 112.091 12.3153 112.862 11.6939C113.633 11.0725 114.65 10.7618 115.913 10.7618C117.666 10.7618 118.977 11.3141 119.847 12.4189C120.239 12.9023 120.506 13.4546 120.646 14.0761H118.332C118.22 13.7999 118.066 13.5789 117.869 13.4132C117.378 12.9575 116.726 12.7296 115.913 12.7296C115.281 12.7296 114.805 12.8401 114.482 13.0611C114.174 13.282 114.019 13.5582 114.019 13.8896C114.019 14.0139 114.047 14.1313 114.103 14.2418C114.159 14.3384 114.258 14.4282 114.398 14.5111C114.538 14.5939 114.671 14.663 114.798 14.7182C114.938 14.7734 115.127 14.8356 115.366 14.9046C115.604 14.9599 115.807 15.0082 115.976 15.0496C116.144 15.0773 116.375 15.1256 116.67 15.1946C116.978 15.2499 117.217 15.2982 117.385 15.3396C119.629 15.8368 120.751 16.9001 120.751 18.5296C120.751 19.4134 120.344 20.173 119.531 20.8082C118.732 21.4296 117.631 21.7403 116.228 21.7403C114.405 21.7403 113.009 21.1534 112.042 19.9796C111.607 19.4411 111.319 18.8541 111.179 18.2189ZM121.904 18.2189H124.323C124.421 18.4951 124.596 18.7575 124.849 19.0061C125.368 19.517 126.069 19.7725 126.953 19.7725C127.724 19.7725 128.285 19.6551 128.636 19.4203C128.986 19.1856 129.162 18.8887 129.162 18.5296C129.162 18.4053 129.133 18.2949 129.077 18.1982C129.021 18.0877 128.923 17.9911 128.783 17.9082C128.642 17.8253 128.509 17.7563 128.383 17.7011C128.257 17.632 128.068 17.5699 127.815 17.5146C127.563 17.4456 127.359 17.3973 127.205 17.3696C127.051 17.3282 126.812 17.273 126.49 17.2039C126.181 17.1349 125.95 17.0865 125.796 17.0589C123.551 16.5618 122.43 15.4984 122.43 13.8689C122.43 13.0403 122.815 12.3153 123.587 11.6939C124.358 11.0725 125.375 10.7618 126.637 10.7618C128.39 10.7618 129.702 11.3141 130.571 12.4189C130.964 12.9023 131.23 13.4546 131.371 14.0761H129.056C128.944 13.7999 128.79 13.5789 128.594 13.4132C128.103 12.9575 127.45 12.7296 126.637 12.7296C126.006 12.7296 125.529 12.8401 125.207 13.0611C124.898 13.282 124.744 13.5582 124.744 13.8896C124.744 14.0139 124.772 14.1313 124.828 14.2418C124.884 14.3384 124.982 14.4282 125.122 14.5111C125.263 14.5939 125.396 14.663 125.522 14.7182C125.662 14.7734 125.852 14.8356 126.09 14.9046C126.328 14.9599 126.532 15.0082 126.7 15.0496C126.869 15.0773 127.1 15.1256 127.394 15.1946C127.703 15.2499 127.941 15.2982 128.11 15.3396C130.354 15.8368 131.476 16.9001 131.476 18.5296C131.476 19.4134 131.069 20.173 130.256 20.8082C129.456 21.4296 128.355 21.7403 126.953 21.7403C125.129 21.7403 123.734 21.1534 122.766 19.9796C122.331 19.4411 122.044 18.8541 121.904 18.2189ZM134.163 20.2282C133.21 19.2063 132.733 17.8806 132.733 16.2511C132.733 14.6215 133.21 13.3027 134.163 12.2946C135.131 11.2727 136.338 10.7618 137.782 10.7618C138.694 10.7618 139.528 11.0241 140.286 11.5489C140.608 11.7699 140.896 12.0253 141.148 12.3153H141.253V10.9689H143.462V21.5332H141.253V20.0832H141.148C140.938 20.3732 140.65 20.6494 140.286 20.9118C139.528 21.4641 138.694 21.7403 137.782 21.7403C136.338 21.7403 135.131 21.2363 134.163 20.2282ZM135.889 13.6411C135.328 14.2487 135.047 15.1187 135.047 16.2511C135.047 17.3834 135.328 18.2534 135.889 18.8611C136.45 19.4687 137.221 19.7725 138.203 19.7725C139.128 19.7725 139.865 19.4687 140.412 18.8611C140.973 18.2396 141.253 17.3696 141.253 16.2511C141.253 15.1325 140.973 14.2694 140.412 13.6618C139.865 13.0403 139.128 12.7296 138.203 12.7296C137.221 12.7296 136.45 13.0334 135.889 13.6411Z" fill="#D7B27B"/>
<path d="M4.34294 12.6595C4.36709 12.6595 4.39117 12.6576 4.41502 12.6539L11.1262 11.6069C11.2014 11.5952 11.2725 11.5653 11.333 11.5198C11.3936 11.4744 11.4418 11.4148 11.4733 11.3465L14.2797 5.25355C14.3141 5.17904 14.3273 5.09676 14.3179 5.01546C14.3086 4.93417 14.277 4.85689 14.2267 4.79181C14.1763 4.72671 14.109 4.67629 14.0319 4.64583C13.9548 4.61539 13.8707 4.60605 13.7886 4.61886L7.07746 5.66583C7.00224 5.67756 6.93116 5.70751 6.87057 5.75296C6.81002 5.7984 6.76182 5.85793 6.73036 5.92622L3.9239 12.0192C3.89212 12.0882 3.87839 12.164 3.88406 12.2396C3.88969 12.3151 3.91448 12.3881 3.95617 12.4518C3.99786 12.5155 4.05511 12.5679 4.12269 12.6042C4.19024 12.6405 4.26598 12.6595 4.34294 12.6595ZM7.70403 10.2546L9.39458 10.9595L6.07382 11.4776L7.70403 10.2546ZM7.98947 8.90121L7.66474 6.49179L12.1298 5.79521L7.98947 8.90121ZM7.14623 9.53379L5.51605 10.7567L6.90472 7.74185L7.14623 9.53379ZM10.8204 10.5699L8.54723 9.62203L12.6876 6.51604L10.8204 10.5699Z" fill="#D7B27B"/>
<path d="M28.459 16.2167C28.1839 14.2273 27.1747 12.1262 25.6172 10.3006C23.6032 7.93979 20.9999 6.41851 18.617 6.19976C18.4831 5.88153 18.308 5.58168 18.096 5.30761L16.4226 3.14503C15.4295 1.86163 13.7214 1.25554 11.6125 1.43813C9.58121 1.61411 7.40175 2.50675 5.47564 3.95169C3.54954 5.39662 2.09695 7.22863 1.38549 9.11028C0.646899 11.0636 0.787063 12.8461 1.78016 14.1295L2.74213 15.3727C2.55068 15.6308 2.39163 15.9108 2.26843 16.2066L1.22294 18.723C0.602464 20.2163 0.937365 21.9735 2.16591 23.6709C3.34935 25.306 5.23536 26.7036 7.47651 27.6064C9.11197 28.2651 10.7999 28.6054 12.3732 28.6054C12.9405 28.6069 13.5069 28.5597 14.0659 28.4642C16.1504 28.1013 17.6401 27.079 18.2606 25.5857L19.2431 23.2209C19.418 23.2877 19.5932 23.3488 19.7687 23.4041C20.4631 23.6304 21.1888 23.7497 21.9202 23.7578C23.0544 23.7578 24.0556 23.4276 24.8419 22.7772L26.9562 21.0286C28.2109 19.9909 28.7446 18.282 28.459 16.2167ZM15.3478 19.3858L16.7568 18.2205C17.3763 18.9045 18.0651 19.5246 18.8123 20.0711L17.4237 21.2196C16.6653 20.6854 15.9691 20.0704 15.3478 19.3858ZM14.7561 18.6917C14.5641 18.4502 14.3818 18.2034 14.209 17.9513C14.189 17.9171 14.168 17.8834 14.1455 17.8503L14.1415 17.853C13.8013 17.3485 13.4998 16.8198 13.2396 16.2711C13.6343 16.0312 14.0213 15.7693 14.4006 15.4854C14.4995 15.4112 14.597 15.336 14.6931 15.2596C15.1052 16.062 15.5983 16.8214 16.1649 17.5265L14.7561 18.6917ZM13.4667 19.2005C13.3743 19.4229 13.1959 19.6001 12.9708 19.693C12.7457 19.786 12.4923 19.7871 12.2664 19.6961L10.1366 18.8383L10.706 17.4679C11.3012 17.2628 11.8799 17.0137 12.4372 16.723C12.7236 17.3198 13.0561 17.894 13.4319 18.4406C13.4933 18.5572 13.5282 18.6855 13.5342 18.8168C13.5402 18.948 13.5172 19.0789 13.4667 19.2005ZM12.4181 21.0232C12.4885 21.1885 12.5076 21.3706 12.4728 21.5466C12.4381 21.7225 12.3512 21.8844 12.223 22.0116C12.0949 22.139 11.9312 22.226 11.7528 22.2617C11.5744 22.2974 11.3893 22.2803 11.2208 22.2124L9.09113 21.3546L9.78813 19.6771L11.9178 20.5349C12.0299 20.5797 12.1318 20.6458 12.2177 20.7297C12.3035 20.8135 12.3717 20.9132 12.4181 21.0232ZM5.86857 15.8684C5.91776 15.8684 5.96744 15.8676 6.01719 15.8667L6.97073 17.099C5.75748 16.9893 4.79058 16.5246 4.18572 15.7429L4.10591 15.6398C4.67986 15.7961 5.27309 15.873 5.86857 15.8684ZM8.183 17.0963C8.16487 17.0978 8.14701 17.099 8.12895 17.1004L7.10459 15.7766C7.76693 15.679 8.41824 15.5192 9.04966 15.2995L10.1344 16.7014C9.50059 16.9029 8.84621 17.0354 8.183 17.0963ZM12.3567 13.5917L13.4719 15.033C12.7132 15.5668 11.897 16.0165 11.0381 16.3739L9.93905 14.9536C10.7899 14.5817 11.5999 14.1254 12.3567 13.5917ZM14.204 14.4838L13.0888 13.0426C13.8122 12.4658 14.474 11.8179 15.0639 11.109L16.163 12.5293C15.5851 13.2498 14.9281 13.9053 14.204 14.4838ZM16.7235 11.7583L15.6388 10.3565C16.0215 9.81539 16.3508 9.2395 16.6223 8.63669L17.6465 9.96043C17.6403 9.97719 17.6345 9.99386 17.6282 10.0106C17.3925 10.6241 17.0891 11.2101 16.7235 11.7583ZM17.9526 8.86059L16.9992 7.62844C17.188 7.02094 17.284 6.38916 17.2842 5.75386L17.3639 5.85683C17.9688 6.63849 18.1673 7.67978 17.9526 8.86059ZM2.24804 9.42647C2.89961 7.7033 4.24395 6.01499 6.03344 4.67255C7.82293 3.33011 9.83292 2.50205 11.6932 2.34087C11.9119 2.32192 12.125 2.31248 12.3323 2.31255C13.8148 2.31255 14.9932 2.79308 15.6905 3.69423C16.4853 4.72143 16.5792 6.19664 15.9548 7.84808C15.3032 9.57125 13.9588 11.2596 12.1694 12.602C10.3798 13.9445 8.36985 14.7725 6.50961 14.9337C4.72695 15.0881 3.30779 14.6077 2.5128 13.581L2.51227 13.5803C1.71746 12.5531 1.6236 11.0779 2.24804 9.42647ZM3.4536 16.2921C4.33079 17.4258 5.76567 18.0309 7.54196 18.0309C7.77664 18.0309 8.01722 18.0203 8.26369 17.999C8.70603 17.9597 9.14505 17.89 9.57752 17.7904L8.23925 21.0114L7.38738 20.6683L7.03886 21.5071L7.89073 21.8502L7.54225 22.689L8.39412 23.0321L8.74264 22.1934L9.59451 22.5365L9.246 23.3753L10.0979 23.7184L10.4464 22.8796L10.8723 23.0512C11.2093 23.1869 11.5796 23.2212 11.9364 23.1498C12.2931 23.0783 12.6204 22.9042 12.8767 22.6496C13.133 22.3951 13.3069 22.0713 13.3763 21.7194C13.4458 21.3676 13.4077 21.0033 13.2669 20.6727C13.2517 20.637 13.2351 20.6021 13.2177 20.5677C13.4581 20.486 13.6785 20.3559 13.8651 20.1859C14.0517 20.0159 14.2004 19.8096 14.3018 19.58C14.3149 19.5955 14.3277 19.6112 14.3409 19.6268C15.5303 21.0209 16.9355 22.1321 18.3984 22.8516C17.8686 23.9792 16.6511 24.7595 14.9511 25.0554C13.1122 25.3756 10.9527 25.09 8.87055 24.2513C6.78828 23.4125 5.04472 22.126 3.96094 20.6286C2.92225 19.1935 2.6237 17.745 3.1203 16.5498C3.18027 16.4066 3.25125 16.2682 3.33262 16.1357L3.4536 16.2921ZM8.09885 24.9118L7.40207 26.5888C6.55026 26.2153 5.74292 25.7504 4.99475 25.2024L5.68139 23.5498C6.43811 24.0835 7.2481 24.5399 8.09885 24.9118ZM8.95105 25.2542C9.8225 25.5762 10.725 25.8099 11.6446 25.9517L10.9579 27.6044C10.0342 27.4789 9.12738 27.2534 8.25394 26.9319L8.95105 25.2542ZM2.07482 19.0661L2.1246 18.9463C2.29242 19.5597 2.55186 20.1452 2.89442 20.6836L2.29876 22.1173C1.77999 21.0319 1.69693 19.9756 2.07482 19.0661ZM2.91545 23.1449C2.90488 23.1303 2.89486 23.1157 2.88444 23.1011L3.52439 21.5609C3.9455 22.0736 4.41543 22.5455 4.92778 22.9701L4.25007 24.6013C3.75241 24.1654 3.30485 23.677 2.91545 23.1449ZM11.917 27.6895L12.5948 26.058C12.8722 26.0782 13.1473 26.089 13.4187 26.089C13.8131 26.0893 14.2072 26.0668 14.5989 26.0215L13.9589 27.5619C13.9411 27.5651 13.9235 27.5687 13.9056 27.5718C13.2491 27.6826 12.5822 27.7221 11.917 27.6895ZM15.077 27.2643L15.6727 25.8307C16.3002 25.683 16.9021 25.4445 17.4585 25.1227L17.4087 25.2425C17.0308 26.1521 16.2197 26.8482 15.077 27.2643ZM18.2325 21.7341L19.603 20.6006C20.1702 20.9513 20.77 21.2478 21.3945 21.4861L20.1003 22.5564C20.083 22.5511 20.0658 22.5462 20.0485 22.5408C19.415 22.3381 18.806 22.0677 18.2325 21.7341ZM24.2499 22.0834C23.4856 22.7154 22.4387 22.9601 21.2306 22.8051L22.4352 21.8088C22.9583 21.9384 23.4952 22.0057 24.0345 22.0092C24.1415 22.0092 24.2469 22.0053 24.3514 21.9994L24.2499 22.0834ZM26.3642 20.3347C25.3599 21.1653 23.8678 21.3276 22.1627 20.7921C20.3837 20.2332 18.607 18.9913 17.16 17.2952C16.4675 16.4893 15.881 15.6005 15.4145 14.65C16.8363 13.3641 17.9102 11.8621 18.4908 10.3268C18.9218 9.18692 19.053 8.10535 18.8906 7.14701C20.9197 7.46193 23.1819 8.85489 24.9125 10.8835C26.3595 12.5796 27.2951 14.5171 27.547 16.339C27.7885 18.0851 27.3684 19.5041 26.3642 20.3347Z" fill="#D7B27B"/>
<path d="M20.24 16.5966L21.0459 16.0689C21.1961 16.2244 21.3681 16.3404 21.5617 16.4167C21.9873 16.5879 22.4195 16.5298 22.8582 16.2425C23.2119 16.0109 23.4263 15.769 23.5012 15.5167C23.5728 15.2594 23.5271 15.01 23.364 14.7686C23.2348 14.5774 23.0528 14.4753 22.818 14.4622C22.5876 14.4462 22.3003 14.4892 21.956 14.5913C21.2876 14.7968 20.8215 14.9097 20.5576 14.9302C19.838 15.0023 19.2895 14.7592 18.9124 14.2008C18.6575 13.8235 18.5575 13.4029 18.6122 12.939C18.6714 12.4721 18.8932 12.0693 19.2778 11.7304L18.7935 11.0135L19.5659 10.5078L20.0501 11.2247C20.6531 10.9894 21.2329 11.0161 21.7894 11.3046C22.0452 11.4347 22.2753 11.6033 22.4797 11.8104L21.6739 12.3381C21.5474 12.2178 21.4065 12.1287 21.2511 12.0708C20.8932 11.9423 20.5172 12.0071 20.1232 12.2651C19.8188 12.4645 19.6336 12.6874 19.5675 12.9338C19.5015 13.1801 19.5432 13.414 19.6928 13.6354C19.917 13.9674 20.3881 14.029 21.1058 13.8202C21.1653 13.803 21.2797 13.7717 21.449 13.726C21.615 13.6754 21.7356 13.6436 21.8108 13.6307C21.8871 13.6097 22.0049 13.5834 22.1642 13.5516C22.3246 13.5119 22.4498 13.4916 22.5396 13.4908C22.6295 13.49 22.7458 13.4901 22.8884 13.491C23.0277 13.4868 23.1457 13.5039 23.2426 13.542C23.3405 13.5723 23.4452 13.6125 23.5567 13.6629C23.6726 13.7103 23.7792 13.782 23.8763 13.878C23.9701 13.969 24.0594 14.0774 24.1444 14.2031C24.4298 14.6257 24.5333 15.0658 24.455 15.5234C24.3778 15.9731 24.1497 16.3764 23.7709 16.7333L24.2551 17.4502L23.4828 17.9559L22.9986 17.239C22.3049 17.5409 21.6443 17.5236 21.0167 17.1872C20.7272 17.0358 20.4683 16.8389 20.24 16.5966Z" fill="#D7B27B"/>
</svg>
