<svg width="105" height="12" viewBox="0 0 105 12" fill="none" xmlns="http://www.w3.org/2000/svg">
<path d="M0.786133 11.8976V0.102452H5.47094C6.65942 0.113238 7.55217 0.404474 8.14919 0.976168C8.75169 1.55325 9.05294 2.3164 9.05294 3.26562C9.06406 3.75102 8.94519 4.21484 8.69641 4.65709C8.56931 4.86743 8.38684 5.06698 8.14919 5.25574C7.91147 5.45529 7.6185 5.63597 7.27025 5.79776V5.83015C7.92806 5.99732 8.42556 6.3344 8.76273 6.84139C9.07782 7.36453 9.2354 7.93348 9.2354 8.54833C9.22437 9.56769 8.89815 10.374 8.25694 10.9673C7.62127 11.5875 6.82802 11.8976 5.87724 11.8976H0.786133ZM5.43778 6.66336H2.6186V10.2068H5.43778C6.1177 10.196 6.6152 10.0154 6.93029 9.66477C7.24538 9.31958 7.40292 8.90968 7.40292 8.43508C7.40292 7.94972 7.24538 7.53443 6.93029 7.18924C6.6152 6.84942 6.1177 6.67421 5.43778 6.66336ZM5.26365 1.69617H2.6186V5.06967H5.26365C5.93252 5.06967 6.42449 4.89978 6.73958 4.56001C7.06019 4.2472 7.2205 3.85349 7.2205 3.37888C7.2205 2.90427 7.06019 2.50246 6.73958 2.17348C6.42449 1.86606 5.93252 1.70696 5.26365 1.69617ZM11.1507 11.8976V0.102452H18.8703V1.79325H12.9832V5.15866H18.008V6.7443H12.9832V10.2068H18.8703V11.8976H11.1507ZM20.7526 9.03377C21.7144 9.80503 22.8587 10.196 24.1853 10.2068C25.7553 10.1852 26.5513 9.63777 26.5734 8.56456C26.5844 7.68545 26.0592 7.15685 24.9979 6.9789C24.5115 6.9142 23.9781 6.84139 23.3977 6.76045C22.3584 6.59328 21.5679 6.21842 21.0262 5.63597C20.4679 5.03732 20.1888 4.30922 20.1888 3.45169C20.1888 2.42157 20.5398 1.591 21.2418 0.959989C21.9217 0.334366 22.8864 0.016157 24.1356 0.00537109C25.6391 0.0377288 26.9465 0.444926 28.0575 1.22695L27.0377 2.69932C26.1312 2.11685 25.1333 1.81483 24.0444 1.79325C23.4805 1.79325 23.0107 1.93078 22.6348 2.20584C22.2423 2.49168 22.0406 2.91775 22.0295 3.48405C22.0295 3.82383 22.1649 4.13124 22.4358 4.4063C22.7067 4.68675 23.1406 4.88091 23.7376 4.98878C24.0693 5.04271 24.5225 5.10473 25.0974 5.17485C26.2307 5.32589 27.0681 5.72229 27.6098 6.36406C28.146 6.99506 28.4141 7.72853 28.4141 8.56456C28.3534 10.8189 26.9382 11.9623 24.1688 11.9947C22.3778 11.9947 20.8382 11.4553 19.5503 10.3767L20.7526 9.03377ZM32.4024 11.8976V1.69617H29.0941V0.102452H37.5516V1.69617H34.2432V11.8976H32.4024Z" fill="#1F1E1C"/>
<path d="M50.2985 8.59687H52.2387C51.9734 9.6917 51.4676 10.5331 50.7213 11.121C49.953 11.7034 49.0436 11.9947 47.9933 11.9947C47.0425 11.9731 46.2493 11.7466 45.6136 11.3151C44.9669 10.8999 44.497 10.4198 44.204 9.87511C44.1156 9.69717 44.0355 9.52726 43.9636 9.36547C43.8972 9.19821 43.842 8.98788 43.7977 8.73439C43.7149 8.25979 43.6733 7.34837 43.6733 6.00005C43.6733 4.63012 43.7149 3.71326 43.7977 3.24944C43.8862 2.78562 44.0216 2.41078 44.204 2.12493C44.497 1.58021 44.9669 1.09482 45.6136 0.668745C46.2493 0.237285 47.0425 0.016157 47.9933 0.00537109C49.1597 0.016157 50.1105 0.353237 50.8457 1.01661C51.5809 1.68539 52.0453 2.51326 52.2387 3.50023H50.2985C50.1492 3.02561 49.8784 2.62112 49.4858 2.28674C49.0768 1.96853 48.5793 1.80404 47.9933 1.79325C47.5622 1.80404 47.1918 1.88764 46.8822 2.04404C46.5671 2.20584 46.3128 2.40808 46.1194 2.65078C45.8817 2.90427 45.7242 3.23056 45.6468 3.62967C45.5584 4.05034 45.5141 4.84046 45.5141 6.00005C45.5141 7.15958 45.5584 7.94433 45.6468 8.35423C45.7242 8.76404 45.8817 9.09574 46.1194 9.34923C46.3128 9.59196 46.5671 9.78879 46.8822 9.93981C47.1918 10.1178 47.5622 10.2068 47.9933 10.2068C49.0216 10.2068 49.7899 9.67016 50.2985 8.59687ZM60.1573 11.8976V6.7443H55.373V11.8976H53.5405V0.102452H55.373V5.15866H60.1573V0.102452H61.9898V11.8976H60.1573ZM66.6912 7.6746H70.2235L68.4739 2.52134H68.4407L66.6912 7.6746ZM71.6828 11.8976L70.7458 9.26026H66.1605L65.2318 11.8976H63.2916L67.6862 0.102452H69.2201L73.6147 11.8976H71.6828ZM74.9165 11.8976V0.102452H76.6413L82.1138 8.48363H82.1469V0.102452H83.9794V11.8976H82.2464L76.7822 3.51641H76.749V11.8976H74.9165ZM90.4635 7.09215V5.40136H94.7589V7.80408C94.7368 8.98523 94.3216 9.97485 93.515 10.7731C92.7025 11.5659 91.6793 11.9731 90.4473 11.9947C89.4964 11.9731 88.7025 11.7466 88.0674 11.3151C87.4204 10.8999 86.9509 10.4198 86.6579 9.87511C86.5688 9.69717 86.489 9.52726 86.4168 9.36547C86.3506 9.19821 86.2954 8.98788 86.2512 8.73439C86.168 8.25979 86.1273 7.34837 86.1273 6.00005C86.1273 4.63012 86.168 3.71326 86.2512 3.24944C86.3395 2.78562 86.4754 2.41078 86.6579 2.12493C86.9509 1.58021 87.4204 1.09482 88.0674 0.668745C88.7025 0.237285 89.4964 0.016157 90.4473 0.00537109C91.6131 0.016157 92.5641 0.353237 93.2994 1.01661C94.0347 1.68539 94.4991 2.51326 94.6927 3.50023H92.7517C92.6031 3.02561 92.3323 2.62112 91.9392 2.28674C91.5307 1.96853 91.0332 1.80404 90.4473 1.79325C90.016 1.80404 89.6458 1.88764 89.3359 2.04404C89.0209 2.20584 88.7662 2.40808 88.5726 2.65078C88.3357 2.90427 88.1778 3.23056 88.1005 3.62967C88.0122 4.05034 87.968 4.84046 87.968 6.00005C87.968 7.15958 88.0122 7.94433 88.1005 8.35423C88.1778 8.76404 88.3357 9.09574 88.5726 9.34923C88.7662 9.59196 89.0209 9.78879 89.3359 9.93981C89.6458 10.1178 90.016 10.2068 90.4473 10.2068C91.1597 10.2068 91.749 9.96946 92.2134 9.49487C92.677 9.04181 92.9147 8.44585 92.9258 7.70699V7.09215H90.4635ZM96.9062 11.8976V0.102452H104.626V1.79325H98.7385V5.15866H103.763V6.7443H98.7385V10.2068H104.626V11.8976H96.9062Z" fill="#9F9F9E"/>
</svg>
