<svg width="78" height="20" viewBox="0 0 78 20" fill="none" xmlns="http://www.w3.org/2000/svg">
<g clip-path="url(#clip0_1_188333)">
<path d="M0.656882 3.90593C0.649953 3.80062 0.684315 3.69669 0.752912 3.61549C0.789138 3.57794 0.833213 3.54855 0.882103 3.52935C0.930995 3.51013 0.98354 3.50155 1.03613 3.50418H9.61011C9.66494 3.5011 9.71982 3.5094 9.77115 3.52859C9.82248 3.54776 9.86907 3.57738 9.90793 3.61549C9.9783 3.70115 10.0141 3.80984 10.0093 3.92028V6.07374C10.0069 6.17708 9.97147 6.27703 9.90793 6.35938C9.87271 6.40382 9.82748 6.4396 9.77579 6.46394C9.72415 6.48833 9.66743 6.5006 9.61011 6.49982H4.00239V8.66286H8.32766C8.42501 8.65852 8.52061 8.68547 8.6016 8.74025C8.63956 8.77203 8.66902 8.81247 8.6874 8.85803C8.70575 8.9036 8.71244 8.95286 8.7069 9.00155V10.855C8.70642 10.9236 8.68557 10.9906 8.64704 11.0477C8.60845 11.1048 8.55375 11.1497 8.48964 11.1768C8.44148 11.1969 8.38926 11.206 8.33696 11.2033H4.01124V13.435H9.82607C9.87961 13.4274 9.93426 13.4326 9.98538 13.4499C10.0365 13.4673 10.0826 13.4965 10.1199 13.535C10.158 13.5739 10.1864 13.6209 10.203 13.6723C10.2196 13.7238 10.2239 13.7782 10.2155 13.8316V16.0189C10.2149 16.0489 10.2082 16.0786 10.1959 16.106C10.1836 16.1335 10.1659 16.1582 10.1438 16.1789C10.1438 16.3385 10.0044 16.4207 9.79288 16.4207H1.03657C0.935053 16.4268 0.835102 16.3939 0.757779 16.3289C0.721221 16.2922 0.693259 16.2479 0.675836 16.1995C0.65841 16.1509 0.651944 16.0993 0.656882 16.0481V3.90593ZM11.0806 16.212L11.22 15.9459C11.2683 15.8589 11.3262 15.7668 11.3882 15.675L15.2811 9.81938L13.3154 6.83852L11.3448 3.86201C11.3147 3.82043 11.2875 3.77684 11.2634 3.73159C11.2435 3.6886 11.2305 3.64282 11.2249 3.59593C11.2249 3.54767 11.2683 3.5281 11.3258 3.5281C11.3845 3.53106 11.4428 3.51764 11.494 3.4894H14.5027C14.6098 3.48984 14.7147 3.52159 14.8041 3.58071C14.8939 3.64028 14.9643 3.72418 15.0072 3.82332L17.1265 7.02721L19.2701 3.82854C19.3112 3.73289 19.3781 3.65115 19.4626 3.59245C19.547 3.53362 19.6469 3.49969 19.7502 3.49462H22.8068C22.8559 3.49854 22.9041 3.5081 22.951 3.52332C22.968 3.52979 22.9826 3.54115 22.9928 3.55589C23.0031 3.57062 23.0086 3.58806 23.0086 3.60593C23.0046 3.68903 22.9706 3.76799 22.9125 3.82854L18.9577 9.81938L23.0184 15.9168C23.0692 15.9863 23.1126 16.0611 23.1485 16.1394C23.1784 16.1909 23.1933 16.2496 23.1913 16.3089C23.1913 16.3959 23.1382 16.4394 23.033 16.4394H19.9379C19.8409 16.44 19.7464 16.4095 19.6689 16.3524C19.5848 16.2913 19.5187 16.2096 19.4767 16.1155L17.1265 12.6068L14.8005 16.1155C14.7586 16.2096 14.6922 16.2914 14.608 16.3524C14.5302 16.4098 14.4354 16.4402 14.339 16.4394H11.2346C11.1913 16.4401 11.1489 16.4265 11.1143 16.4007C11.097 16.3877 11.0831 16.3708 11.0739 16.3514C11.0646 16.3321 11.0603 16.3108 11.0612 16.2894C11.0601 16.2623 11.0668 16.2355 11.0806 16.212ZM24.9454 3.88679C24.9425 3.78784 24.9767 3.69127 25.0415 3.61549C25.0776 3.57762 25.1218 3.54803 25.1708 3.52879C25.2197 3.50955 25.2725 3.50116 25.3253 3.50418H28.1561C28.2429 3.50549 28.3286 3.52723 28.4056 3.56723C28.4995 3.61332 28.5782 3.68549 28.6313 3.77549C29.3619 4.96591 30.0878 6.13852 30.8086 7.2933L33.0004 10.8116V3.83332C33.0218 3.73788 33.0782 3.65352 33.1588 3.59637C33.2252 3.53905 33.3109 3.50805 33.3991 3.5094H35.8645C35.9738 3.50723 36.0809 3.54332 36.1672 3.61071C36.2082 3.64499 36.2405 3.68827 36.2613 3.73705C36.2823 3.78584 36.2912 3.83877 36.2875 3.89159V16.1011C36.2919 16.1491 36.2847 16.1975 36.2662 16.2421C36.2478 16.2867 36.2185 16.3263 36.1812 16.3576C36.0993 16.416 35.9992 16.445 35.8982 16.4398H33.1208C33.0457 16.4412 32.9732 16.4134 32.9191 16.3624C32.8527 16.2991 32.7931 16.2293 32.7412 16.1542L30.463 12.365C29.704 11.1009 28.9431 9.83791 28.1805 8.57591V16.0576C28.188 16.1599 28.1571 16.2615 28.0937 16.3429C28.051 16.3789 28.0014 16.4062 27.9477 16.4228C27.8941 16.4395 27.8376 16.4453 27.7817 16.4398H25.3256C25.272 16.4459 25.2177 16.439 25.1675 16.4196C25.1171 16.4002 25.0726 16.3689 25.0376 16.3285C24.975 16.2557 24.9423 16.1625 24.9459 16.0672L24.9454 3.88679ZM64.964 9.98374C64.9653 10.5769 64.8861 11.1676 64.7285 11.7402C64.5767 12.2789 64.3519 12.7949 64.0602 13.2746C63.4872 14.2284 62.6725 15.0203 61.6959 15.5733C60.6776 16.1356 59.5284 16.429 58.3605 16.425H54.0982C54.0007 16.4263 53.9052 16.4033 53.8192 16.3572C53.7374 16.3089 53.6989 16.212 53.6989 16.0572V3.90549C53.6975 3.84828 53.7079 3.79137 53.7295 3.73818C53.7507 3.68499 53.783 3.63662 53.8242 3.59593C53.8608 3.55515 53.9074 3.52343 53.9591 3.50328C54.0105 3.48313 54.0667 3.4751 54.1221 3.47984H58.3849C58.977 3.47854 59.5664 3.55506 60.1391 3.70723C60.6891 3.85382 61.2171 4.07013 61.7105 4.35069C62.1959 4.62933 62.6447 4.96582 63.0465 5.35243C63.4478 5.74138 63.7952 6.18086 64.0798 6.65938C64.3696 7.14833 64.5941 7.67213 64.7476 8.21764C64.9016 8.7933 64.9746 9.38764 64.964 9.98374ZM57.0489 6.62069V13.3229H58.1635L58.5434 13.2942C58.9633 13.2612 59.3739 13.1529 59.7546 12.9746C60.1138 12.7995 60.4392 12.5636 60.7157 12.2776C60.999 11.9834 61.2224 11.6385 61.3742 11.2616C61.5366 10.8572 61.6181 10.4246 61.6144 9.98852C61.6193 9.54033 61.5318 9.09582 61.357 8.68182C61.1822 8.26782 60.9232 7.89294 60.5971 7.57982C60.2833 7.27952 59.912 7.04386 59.5045 6.88677C59.0805 6.71674 58.6261 6.63116 58.1685 6.63503L57.0489 6.62069ZM67.2226 3.90593C67.2155 3.80064 67.2501 3.69676 67.3186 3.61549C67.3549 3.57798 67.3992 3.54862 67.4479 3.52942C67.497 3.5102 67.5496 3.5016 67.6022 3.50418H76.1807C76.2346 3.50045 76.2891 3.50849 76.34 3.52772C76.3905 3.54696 76.4364 3.57693 76.4741 3.61549C76.548 3.70011 76.5856 3.8094 76.58 3.92071V6.07416C76.5791 6.17852 76.5415 6.27982 76.4741 6.35938C76.4378 6.40374 76.3909 6.43894 76.3383 6.46199C76.2857 6.48464 76.2285 6.49433 76.1714 6.49025H70.5678V8.6533H74.893C74.9899 8.64894 75.0864 8.67591 75.167 8.73069C75.2044 8.76252 75.2342 8.80294 75.2527 8.84847C75.271 8.89399 75.278 8.9433 75.2727 8.99199V10.8555C75.2722 10.9422 75.2378 11.0254 75.1766 11.0876C75.1434 11.1272 75.1015 11.1583 75.0537 11.1785C75.0058 11.1987 74.954 11.2073 74.9023 11.2037H70.5774V13.4346H76.3923C76.4459 13.4271 76.5002 13.4322 76.5511 13.4496C76.6025 13.467 76.6485 13.4962 76.6857 13.5346C76.7236 13.5736 76.752 13.6206 76.7688 13.6721C76.7852 13.7236 76.7896 13.7782 76.7817 13.8316V16.0185C76.7798 16.0791 76.7539 16.1365 76.7095 16.1785C76.7095 16.3381 76.5702 16.4207 76.3538 16.4207H67.6022C67.5519 16.4241 67.5013 16.4178 67.4536 16.4019C67.4054 16.3861 67.3616 16.3612 67.3234 16.3285C67.2872 16.2915 67.2593 16.2473 67.2422 16.1989C67.2244 16.1504 67.2177 16.0989 67.2226 16.0476V3.90593Z" fill="#9F9F9E"/>
<path fill-rule="evenodd" clip-rule="evenodd" d="M49.4885 4.69555L44.8168 11.2508L42.9728 9.98208C42.6687 9.77338 42.3014 9.94774 42.3686 10.269L43.3524 14.9682C43.4006 15.1964 43.6532 15.3708 43.8883 15.3369L48.7194 14.6377C49.0496 14.5899 49.0912 14.1912 48.7876 13.9821L46.9432 12.7134L51.18 6.76904C52.3681 8.99904 52.2791 11.7869 50.7082 13.9908C48.4655 17.1386 44.0502 17.903 40.8472 15.6995C37.6438 13.4956 36.8654 9.15816 39.1081 6.01077C41.3513 2.86381 45.7664 2.09903 48.9695 4.3025C49.1505 4.42686 49.3235 4.55816 49.4885 4.69555Z" fill="#9F9F9E"/>
<path fill-rule="evenodd" clip-rule="evenodd" d="M46.9127 5.02537C46.8649 4.79667 46.6119 4.62233 46.3768 4.65667L41.5459 5.35537C41.2157 5.4032 41.1741 5.80233 41.4782 6.01103L43.3222 7.27972L38.8545 13.5484C39.3232 14.2987 39.9251 14.9604 40.6317 15.5019L45.4485 8.74276L47.2923 10.0115C47.5964 10.2202 47.9637 10.0454 47.8965 9.7245L46.9127 5.02537Z" fill="#1F1E1C"/>
</g>
<defs>
<clipPath id="clip0_1_188333">
<rect width="77" height="20" fill="white" transform="translate(0.213867)"/>
</clipPath>
</defs>
</svg>
