<svg width="97" height="16" viewBox="0 0 97 16" fill="none" xmlns="http://www.w3.org/2000/svg">
<path d="M2.80474 3.06378V6.90644H5.79559V8.87703H2.80474V12.9167H6.56807V14.8873H0.625977V1.09319H6.56807V3.06378H2.80474ZM13.167 1.09319H15.1873L12.9095 7.7932L15.3458 14.8873H13.0482L11.2655 9.42879L9.4631 14.8873H7.42302L9.85924 7.7932L7.58147 1.09319H9.83943L11.4834 6.17732L13.167 1.09319ZM20.3974 9.74409H22.4573V11.5767C22.4573 12.6934 22.18 13.5539 21.6254 14.1582C21.0708 14.7494 20.2653 15.045 19.209 15.045C18.1526 15.045 17.3471 14.7494 16.7925 14.1582C16.2379 13.5539 15.9606 12.6934 15.9606 11.5767V4.40379C15.9606 3.28712 16.2379 2.4332 16.7925 1.84202C17.3471 1.2377 18.1526 0.935547 19.209 0.935547C20.2653 0.935547 21.0708 1.2377 21.6254 1.84202C22.18 2.4332 22.4573 3.28712 22.4573 4.40379V5.74379H20.3974V4.26585C20.3974 3.35937 20.021 2.90614 19.2684 2.90614C18.5157 2.90614 18.1394 3.35937 18.1394 4.26585V11.7147C18.1394 12.608 18.5157 13.0547 19.2684 13.0547C20.021 13.0547 20.3974 12.608 20.3974 11.7147V9.74409ZM25.958 8.97556V14.8873H23.7792V1.09319H25.958V7.00497H28.4339V1.09319H30.6523V14.8873H28.4339V8.97556H25.958ZM37.0649 1.09319L39.2833 14.8873H37.0847L36.7084 12.3847H34.0345L33.6581 14.8873H31.6576L33.876 1.09319H37.0649ZM35.3615 3.53673L34.3118 10.5126H36.4113L35.3615 3.53673ZM44.9526 14.8873L42.239 4.89643V14.8873H40.2781V1.09319H43.0115L45.2497 9.34997V1.09319H47.1907V14.8873H44.9526ZM52.0189 9.17262V7.20202H55.0691V11.5767C55.0691 12.6934 54.7918 13.5539 54.2372 14.1582C53.6826 14.7494 52.8772 15.045 51.8208 15.045C50.7644 15.045 49.9589 14.7494 49.4043 14.1582C48.8497 13.5539 48.5724 12.6934 48.5724 11.5767V4.40379C48.5724 3.28712 48.8497 2.4332 49.4043 1.84202C49.9589 1.2377 50.7644 0.935547 51.8208 0.935547C52.8772 0.935547 53.6826 1.2377 54.2372 1.84202C54.7918 2.4332 55.0691 3.28712 55.0691 4.40379V5.74379H53.0092V4.26585C53.0092 3.35937 52.6329 2.90614 51.8802 2.90614C51.1275 2.90614 50.7512 3.35937 50.7512 4.26585V11.7147C50.7512 12.608 51.1275 13.0547 51.8802 13.0547C52.6329 13.0547 53.0092 12.608 53.0092 11.7147V9.17262H52.0189ZM58.6473 3.06378V6.90644H61.6381V8.87703H58.6473V12.9167H62.4106V14.8873H56.4685V1.09319H62.4106V3.06378H58.6473ZM63.4834 4.40379C63.4834 3.28712 63.7541 2.4332 64.2955 1.84202C64.8369 1.2377 65.6357 0.935547 66.6921 0.935547C67.7485 0.935547 68.5474 1.2377 69.0887 1.84202C69.6301 2.4332 69.9008 3.28712 69.9008 4.40379V4.83732H67.8409V4.26585C67.8409 3.35937 67.4778 2.90614 66.7515 2.90614C66.0253 2.90614 65.6621 3.35937 65.6621 4.26585C65.6621 4.7782 65.8074 5.26428 66.0979 5.72408C66.3884 6.17075 66.7383 6.578 67.1477 6.94585C67.5702 7.31369 67.9928 7.70124 68.4153 8.1085C68.8379 8.50261 69.1944 9.00183 69.4849 9.60614C69.7754 10.1973 69.9206 10.8542 69.9206 11.5767C69.9206 12.6934 69.6433 13.5539 69.0887 14.1582C68.5341 14.7494 67.7287 15.045 66.6723 15.045C65.6159 15.045 64.8104 14.7494 64.2558 14.1582C63.7012 13.5539 63.424 12.6934 63.424 11.5767V10.7294H65.4839V11.7147C65.4839 12.608 65.8602 13.0547 66.6129 13.0547C67.3655 13.0547 67.7419 12.608 67.7419 11.7147C67.7419 11.2023 67.5966 10.7228 67.3061 10.2761C67.0156 9.81634 66.6591 9.40252 66.2365 9.03467C65.8272 8.66683 65.4113 8.28585 64.9887 7.89173C64.5662 7.48448 64.2096 6.98526 63.9191 6.39408C63.6286 5.78977 63.4834 5.12634 63.4834 4.40379ZM71.0699 1.09319H73.2487V11.7344C73.2487 12.6277 73.625 13.0744 74.3777 13.0744C75.1304 13.0744 75.5067 12.6277 75.5067 11.7344V1.09319H77.5666V11.5964C77.5666 12.7131 77.2893 13.5736 76.7347 14.1779C76.1801 14.7691 75.3746 15.0647 74.3183 15.0647C73.2619 15.0647 72.4564 14.7691 71.9018 14.1779C71.3472 13.5736 71.0699 12.7131 71.0699 11.5964V1.09319ZM82.0715 1.09319L83.6758 10.887L85.1613 1.09319H88.1917V14.8873H86.1318V4.99496L84.6265 14.8873H82.5666L80.9425 5.1329V14.8873H79.041V1.09319H82.0715ZM91.7768 4.26585V11.7147C91.7768 12.6211 92.1531 13.0744 92.9058 13.0744C93.6585 13.0744 94.0348 12.6211 94.0348 11.7147V4.26585C94.0348 3.35937 93.6585 2.90614 92.9058 2.90614C92.1531 2.90614 91.7768 3.35937 91.7768 4.26585ZM89.598 11.5767V4.40379C89.598 3.30026 89.8819 2.44633 90.4497 1.84202C91.0175 1.2377 91.8362 0.935547 92.9058 0.935547C93.9754 0.935547 94.7941 1.2377 95.3619 1.84202C95.9297 2.44633 96.2136 3.30026 96.2136 4.40379V11.5767C96.2136 12.6803 95.9297 13.5342 95.3619 14.1385C94.7941 14.7428 93.9754 15.045 92.9058 15.045C91.8362 15.045 91.0175 14.7428 90.4497 14.1385C89.8819 13.5342 89.598 12.6803 89.598 11.5767Z" fill="#9F9F9E"/>
</svg>
