<svg width="16" height="13" viewBox="0 0 16 13" fill="none" xmlns="http://www.w3.org/2000/svg">
<path fill-rule="evenodd" clip-rule="evenodd" d="M1.36425 5.65727C5.49402 3.92037 8.24785 2.7753 9.62573 2.22206C13.5599 0.64244 14.3773 0.368044 14.9102 0.358983C15.0274 0.356991 15.2894 0.385027 15.4591 0.517976C15.6024 0.630236 15.6419 0.781883 15.6607 0.888318C15.6796 0.994753 15.7031 1.23721 15.6844 1.42667C15.4712 3.58904 14.5487 8.83655 14.0794 11.2585C13.8809 12.2832 13.4899 12.6269 13.1113 12.6605C12.2886 12.7336 11.6639 12.1357 10.8672 11.6315C9.62034 10.8425 8.91596 10.3513 7.70571 9.58145C6.30705 8.69171 7.21374 8.20269 8.01083 7.4035C8.21944 7.19434 11.8441 4.01171 11.9143 3.723C11.923 3.68689 11.9312 3.55229 11.8484 3.48122C11.7655 3.41015 11.6433 3.43446 11.555 3.45378C11.43 3.48118 9.43818 4.75206 5.57961 7.26641C5.01424 7.64118 4.50215 7.82377 4.04333 7.8142C3.53752 7.80366 2.56455 7.53813 1.84124 7.31116C0.954071 7.03277 0.248969 6.88559 0.310368 6.4128C0.342348 6.16655 0.693643 5.9147 1.36425 5.65727Z" fill="#D7B27B"/>
</svg>
