<svg width="16" height="16" viewBox="0 0 16 16" fill="none" xmlns="http://www.w3.org/2000/svg">
<path d="M7.99895 0.307617C3.75741 0.307617 0.306641 3.75814 0.306641 7.99993C0.306641 9.49231 0.734575 10.9311 1.54688 12.1806L0.348207 14.9776C0.265575 15.1699 0.308644 15.3938 0.456881 15.542C0.555038 15.6402 0.686248 15.6922 0.819461 15.6922C0.88757 15.6922 0.95643 15.6787 1.02153 15.6507L3.81851 14.4517C5.06776 15.2645 6.50656 15.6922 7.99895 15.6922C12.2407 15.6922 15.6913 12.2417 15.6913 7.99993C15.6913 3.75814 12.2407 0.307617 7.99895 0.307617ZM11.9473 10.7533C11.9473 10.7533 11.3077 11.5736 10.8455 11.7655C9.67062 12.2517 8.01197 11.7655 6.12245 9.87643C4.23342 7.9869 3.7469 6.32825 4.23342 5.15337C4.42523 4.69063 5.24554 4.05161 5.24554 4.05161C5.4679 3.87833 5.81345 3.89987 6.01277 4.09918L6.94076 5.02717C7.14007 5.22649 7.14007 5.55301 6.94076 5.75233L6.35832 6.33426C6.35832 6.33426 6.12245 7.04239 7.53921 8.45966C8.95598 9.87643 9.66461 9.64055 9.66461 9.64055L10.2465 9.05812C10.4459 8.8588 10.7724 8.8588 10.9717 9.05812L11.8997 9.9861C12.099 10.1854 12.1205 10.5305 11.9473 10.7533Z" fill="#D7B27B"/>
</svg>
